<svg baseProfile="basic" xmlns="http://www.w3.org/2000/svg" viewBox="0 0 263.4 87.1" overflow="scroll"><g fill="#FFF"><path fill-rule="evenodd" clip-rule="evenodd" d="M0 1.2h14.1V3H0V1.2zm0 11.3h14.1v1.8H0v-1.8zm0 11.6h14.1v1.8H0v-1.8zm0 11.7h14.1v1.8H0v-1.8zm0 11.4h14.1V49H0v-1.8zm249.3-46h14.1V3h-14.1V1.2zm0 11.3h14.1v1.8h-14.1v-1.8zm0 11.6h14.1v1.8h-14.1v-1.8zm0 11.7h14.1v1.8h-14.1v-1.8zm0 11.4h14.1V49h-14.1v-1.8zm-15.2 1.7L244.3 1H231l-10.2 47.9h13.3zm-48.6-18.6l10.7-19.9h.2l1.9 19.9h-12.8zM175 48.9l5.1-9.4h19.5l1.2 9.4h15L207 1h-16.2l-29.1 47.9H175zm-64.9 0h12l7.8-36.7h.1l8.5 36.7h18.4L167 1h-12l-7.6 35.6-.2.1L138.9 1h-18.6l-10.2 47.9zm-7.5 0l2-9.3H81.3l2.2-10.2h21.4l2-9.3H85.5l2.1-9.9h23.2l2-9.3H76.3l-10.2 48h36.5zM64.2 15.1C67.4 3.5 58 0 48.1 0c-10 0-20.6 3.1-23.6 14.5-1.1 5.2.4 9.6 4.7 11.7 9.4 4.6 19.6 3.2 18.2 9.7-.7 3.2-4.9 4.8-8 4.8-4.8 0-7.6-2.5-6.6-7H19.7C17.1 46.7 26.3 50 37.4 50s22.1-4.8 24.2-14.9c2.7-12.9-8.8-13.7-16.4-15.8-3.3-.9-7.3-2.1-6.6-5.6.5-2.4 3.6-4.4 6.6-4.4 2.3 0 3.9.5 4.8 1.5 1 1 1.3 2.4.8 4.2h13.4z"/><path d="M58.8 84.3l.8-1c1.9 1.7 3.6 2.6 6.2 2.6s4.3-1.4 4.3-3.4c0-1.8-1-2.9-4.9-3.7-4.1-.8-5.8-2.2-5.8-4.8 0-2.6 2.3-4.5 5.5-4.5 2.5 0 4.1.7 5.9 2.1l-.8 1c-1.6-1.4-3.2-1.9-5.1-1.9-2.5 0-4.2 1.4-4.2 3.2 0 1.8.9 2.9 5 3.8 4 .8 5.6 2.2 5.6 4.7 0 2.8-2.4 4.7-5.7 4.7-2.6 0-4.7-.9-6.8-2.8zm23-14.7H83l8 17.3h-1.4L87.4 82H77.3l-2.2 4.8h-1.3l8-17.2zm5.1 11.3L82.4 71l-4.5 9.9h9zm-8-13.1c.5-1.6 1.1-2.2 2-2.2.9 0 2.3.9 3.1.9.6 0 .9-.3 1.2-1.1l.9.2c-.5 1.6-1.1 2.1-2 2.1-.9 0-2.3-.9-3.1-.9-.6 0-.9.3-1.2 1.2l-.9-.2zm14 10.5c0-4.7 3.5-8.9 8.7-8.9s8.6 4.1 8.6 8.8c0 4.7-3.5 8.9-8.7 8.9s-8.6-4.1-8.6-8.8zm16 0c0-4.3-3.1-7.8-7.3-7.8-4.2 0-7.3 3.4-7.3 7.7 0 4.2 3.1 7.7 7.3 7.7 4.2.1 7.3-3.3 7.3-7.6zm13-8.6h6.2c3.8 0 6.4 1.9 6.4 5.2 0 3.6-3.1 5.5-6.7 5.5h-4.6v6.4h-1.3V69.7zm6 9.6c3.2 0 5.3-1.7 5.3-4.2 0-2.7-2.1-4.1-5.2-4.1h-4.9v8.4h4.8zm15.2-9.7h1.2l8 17.3h-1.4l-2.2-4.8h-10.1l-2.2 4.8h-1.3l8-17.3zm5.1 11.3l-4.5-9.9-4.5 9.9h9zm6.8-1.2v-10h1.3v9.9c0 4 2.2 6.4 5.8 6.4 3.5 0 5.7-2.1 5.7-6.3v-10h1.3v9.9c0 4.9-2.9 7.6-7 7.6-4.1-.1-7.1-2.7-7.1-7.5zm19-10h1.3v16h10.1v1.2H174V69.7zm13.4 8.6c0-4.7 3.5-8.9 8.7-8.9 5.2 0 8.6 4.1 8.6 8.8 0 4.7-3.5 8.9-8.7 8.9-5.2 0-8.6-4.1-8.6-8.8zm15.9 0c0-4.3-3.1-7.8-7.3-7.8-4.2 0-7.3 3.4-7.3 7.7 0 4.2 3.1 7.7 7.3 7.7s7.3-3.3 7.3-7.6z"/></g></svg>